<?xml version="1.0" encoding="utf-8"?>
<!-- Generator: Adobe Illustrator 16.0.0, SVG Export Plug-In . SVG Version: 6.00 Build 0)  -->
<!DOCTYPE svg PUBLIC "-//W3C//DTD SVG 1.1//EN" "http://www.w3.org/Graphics/SVG/1.1/DTD/svg11.dtd">
<svg version="1.1" xmlns="http://www.w3.org/2000/svg" xmlns:xlink="http://www.w3.org/1999/xlink" x="0px" y="0px"
	 width="1417.323px" height="2125.984px" viewBox="0 0 1417.323 2125.984" enable-background="new 0 0 1417.323 2125.984"
	 xml:space="preserve">
<g id="shenti">
	<g id="bozi">
		
			<rect x="636.506" y="727.993" fill="#FFCB98" stroke="#231815" stroke-width="2" stroke-miterlimit="10" width="140.938" height="90.817"/>
	</g>
	<g id="xie">
	</g>
	<g id="tou">
		<path fill="#FFCC9A" stroke="#231815" stroke-width="2" stroke-miterlimit="10" d="M830.365,695.379
			c-2.438,21.583-34.522,38.463-54.408,38.463H647.458c-19.891,0-61.43-16.88-63.874-38.463l-13.608-120.495
			c-3.134-27.768,13.551-51.224,37.41-51.224h199.176c23.859,0,40.545,23.456,37.41,51.224L830.365,695.379z"/>
	</g>
	<g id="toufa_huzi">
		<path fill="#D1CCD5" stroke="#231815" stroke-width="2" stroke-miterlimit="10" d="M857.212,613.109v-72.486
			c0,0-7.146-12.945-30.521-18.362c-10.771-2.493-15.814-3.35-33.702-3.35c0,0,12.666,32.938-12.358,57.881
			c-9.512,9.491-47.879,16.435-72.498,16.25c-24.626,0.185-62.985-6.759-72.502-16.25c-25.023-24.943-12.353-57.881-12.353-57.881
			c-17.888,0-22.936,0.857-33.705,3.35c-23.374,5.417-30.519,18.362-30.519,18.362v72.486c0,0-2.334,61.037,80.189,62.119
			c15.954,0.206,42.983,0.047,68.89,0.014c25.902,0.033,52.938,0.192,68.89-0.014C859.546,674.146,857.212,613.109,857.212,613.109z
			"/>
	</g>
	<g id="gebo">
		<path fill="#FFCC9A" stroke="#231815" stroke-width="2" stroke-miterlimit="10" d="M253.861,896.752
			c-31.155,14.851-89.817,12.583-113.361,8.674c-16.935-2.813-30.824-7.99-37.304-26.503c-4.211-12.024,6.233-18.65,20.199-22.483
			c17.959-4.927,55.928,4.027,62.375-3.225c3.468-3.896,9.683-10.93,1.88-11.598c-7.798-0.668-17.277,3.579-27.003-1.248
			c-9.732-4.83-21.432-12.838-4.917-15.466c16.522-2.63,34.32-4.072,49.001,1.359c14.683,5.431,55.189,21.563,59.169,27.173
			C267.893,859.051,253.861,896.752,253.861,896.752z"/>
		<path fill="#FFCC9A" stroke="#231815" stroke-miterlimit="10" d="M1159.229,901.447c30.502,16.042,89.219,16.042,112.902,13.047
			c17.046-2.157,31.137-6.792,38.396-25.04c4.726-11.851-5.427-18.878-19.224-23.246c-17.723-5.613-56.042,1.865-62.178-5.63
			c-3.296-4.029-9.215-11.295-1.397-11.66c7.827-0.367,17.117,4.24,27.041-0.208c9.934-4.446,21.965-11.999,5.568-15.261
			c-16.401-3.265-34.115-5.395-49.021-0.537c-14.896,4.86-56.046,19.415-60.274,24.87
			C1146.818,863.237,1159.229,901.447,1159.229,901.447z"/>
		<path fill="#FFCC9A" stroke="#231815" stroke-width="2" stroke-miterlimit="10" d="M528.355,824.681c0,0-183,8.997-248.615,22.458
			c-65.611,13.464-46.863,56.844,0,58.39c46.868,1.548,273.684,0,273.684,0L528.355,824.681z"/>
		<path fill="#FFCC9A" stroke="#231815" stroke-width="2" stroke-miterlimit="10" d="M890.048,824.681
			c0,0,182.997,9.548,248.612,23.835c65.606,14.285,46.866,60.329,0,61.975c-46.87,1.643-273.684,0-273.684,0L890.048,824.681z"/>
	</g>
	<g id="xie_1_">
	</g>
	<g id="yifu">
		<path fill="#FFCB98" d="M790.777,795.616c-64.503-7.649-117.472-5.538-165.285,0.142l82.334,51.207L790.777,795.616z"/>
		<path fill="#888888" stroke="#231815" stroke-miterlimit="10" d="M518.854,1161.8"/>
		<path fill="#888888" stroke="#231815" stroke-miterlimit="10" d="M897.425,1161.8"/>
		<path fill="none" d="M708.376,1161.8"/>
		<path fill="#AD7279" stroke="#231815" stroke-width="2" stroke-miterlimit="10" d="M790.891,790.533l-0.904,0.556l-81.61,16.733
			v0.249c-24.368-4.169-107.005-17.538-107.005-17.538l-0.907,0.556l-81.61,16.733V1161.8h189.522h1.226h189.521V808.282
			C876.388,804.364,790.891,790.533,790.891,790.533z"/>
	</g>
	<g id="kuzi">
		<g>
			<path fill="#3E3A39" stroke="#231815" stroke-width="2" stroke-miterlimit="10" d="M600.541,1549.848
				c-39.83,0-72.06,29.769-72.06,66.558h144.133C672.614,1579.617,640.382,1549.848,600.541,1549.848z"/>
			<path fill="#3E3A39" stroke="#231815" stroke-width="2" stroke-miterlimit="10" d="M805.08,1549.848
				c39.834,0.241,71.879,30.204,71.646,66.998l-144.127-0.895C732.82,1579.176,765.24,1549.602,805.08,1549.848z"/>
			<path fill="#888888" stroke="#231815" stroke-width="2" stroke-miterlimit="10" d="M709.57,1244.119
				c19.725-0.426,17.949,14.247,22.414,57.756c9.301,90.606,20.715,192.68,26.336,233.637c4.734,34.508,33.684,27.595,69.635,27.51
				c18.434-0.038,36.18,0.738,47.107-54.479c10.928-55.228,24.076-345.814,24.076-345.814H709.57H519.998
				c0,0,13.149,290.587,24.079,345.814c10.923,55.218,28.672,54.441,47.103,54.479c35.957,0.085,64.9,6.998,69.635-27.51
				c5.618-40.957,17.039-143.03,26.335-233.637C691.615,1258.366,689.842,1243.693,709.57,1244.119z"/>
		</g>
	</g>
</g>
<g id="jingluo">
	<polyline fill="none" stroke="#231815" stroke-width="2" stroke-miterlimit="10" points="721.021,523.51 719.521,642.004 
		748.02,759.499 748.02,1204.976 733.021,1155.479 733.021,1224.475 790.018,1261.973 818.516,1431.465 792.932,1431.465 	"/>
	<polyline fill="none" stroke="#231815" stroke-width="2" stroke-miterlimit="10" points="740.521,730.5 778.019,826.495 
		778.019,1208.975 792.932,1431.465 800.518,1502.96 815.517,1523.959 784.019,1604.956 842.516,1592.957 875.514,1616.955 	"/>
	<polyline fill="none" stroke="#231815" stroke-width="2" stroke-miterlimit="10" points="694.843,523.51 696.343,642.004 
		667.844,759.499 667.844,1204.976 682.843,1155.479 682.843,1224.475 625.846,1261.973 597.348,1431.465 622.932,1431.465 	"/>
	<polyline fill="none" stroke="#231815" stroke-width="2" stroke-miterlimit="10" points="675.343,730.5 637.845,826.495 
		637.845,1208.975 622.932,1431.465 615.346,1502.96 600.347,1523.959 631.845,1604.956 573.348,1592.957 540.35,1616.955 	"/>
</g>
</svg>
