<?xml version="1.0" encoding="utf-8"?>
<!-- Generator: Adobe Illustrator 16.0.0, SVG Export Plug-In . SVG Version: 6.00 Build 0)  -->
<!DOCTYPE svg PUBLIC "-//W3C//DTD SVG 1.1//EN" "http://www.w3.org/Graphics/SVG/1.1/DTD/svg11.dtd">
<svg version="1.1" xmlns="http://www.w3.org/2000/svg" xmlns:xlink="http://www.w3.org/1999/xlink" x="0px" y="0px"
	 width="1417.323px" height="2125.984px" viewBox="0 0 1417.323 2125.984" enable-background="new 0 0 1417.323 2125.984"
	 xml:space="preserve">
<g id="图层_13">
</g>
<g id="shenti">
	<g id="bozi">
		<polygon fill="#FFCB98" stroke="#231815" stroke-width="2" stroke-miterlimit="10" points="711.545,684.141 535.719,652.405 
			563.063,500.949 738.882,532.684 		"/>
	</g>
	<g id="tou">
		<path fill="#FFCC9A" stroke="#231815" stroke-width="2" stroke-miterlimit="10" d="M805.979,448.831
			c0,46.487-45.025,84.168-74.717,84.168H539.521c-29.692,0-88.825-37.681-88.825-84.168V219.709
			c0-46.484,24.056-84.165,53.742-84.165h247.794c29.674,0,53.747,37.681,53.747,84.165V448.831z"/>
	</g>
	<g id="yanjing_2">
		
			<line fill="none" stroke="#231815" stroke-width="5" stroke-miterlimit="10" x1="805.979" y1="260.023" x2="805.979" y2="318.642"/>
	</g>
	<g id="toufa_huzi">
		<path fill="#D1CCD5" stroke="#D0CBD4" stroke-miterlimit="10" d="M801.661,407.48c14.628,1.079,23.586,1.949,27.848,32.545
			c4.256,30.596-6.747,49.766-7.08,58.994c-0.314,9.228-40.96-67.755-40.96-67.755L801.661,407.48z"/>
		<path fill="#D1CCD5" d="M646.226,407.31c-40.41,0.06-82.555,0.361-107.442-0.032c-128.69-2.038-125.065-117.11-125.065-117.11
			V153.507c0,0,11.158-24.409,47.603-34.621c16.8-4.697,24.663-6.318,52.574-6.318c0,0-19.775,62.103,19.257,109.132
			c14.841,17.89,74.67,30.983,113.074,30.635V407.31z"/>
	</g>
	<g id="xie_1_">
		<path fill="#3E3A39" stroke="#231815" stroke-width="2" stroke-miterlimit="10" d="M642.501,1906.949
			c-75.514,0-136.611,43.302-136.611,96.803l290.761,0.33C796.65,1950.57,759.7,1906.628,642.501,1906.949z"/>
	</g>
	<g id="wazi">
		<path fill="#FFFFFF" d="M724.057,1930.27c0,17.193-32.623,31.122-72.865,31.122s-72.868-13.929-72.868-31.122
			c0-17.188,32.626-31.116,72.868-31.116S724.057,1913.083,724.057,1930.27z"/>
	</g>
	<g id="kuzi">
		<path fill="#888888" stroke="#231815" stroke-width="2" stroke-miterlimit="10" d="M780.018,1250.752H462.52
			c0,0,56.121,499.475,74.403,595.12c18.267,95.645,41.553,99.595,64.393,99.595c60.139,0,82.638-6.679,96.525-80.962
			c11.203-59.86,31.769-208.348,48.677-334.219C757.774,1446.506,770.74,1321.635,780.018,1250.752"/>
	</g>
	<g id="yifu">
		<path display="none" fill="#D1CCD5" d="M978.768,952.191v-20.607c0,0-1.61-3.681-6.879-5.22c-2.428-0.708-3.564-0.953-7.597-0.953
			c0,0,2.854,9.364-2.785,16.456c-2.145,2.698-10.792,4.672-16.341,4.62c-5.551,0.053-14.197-1.922-16.343-4.62
			c-5.64-7.091-2.784-16.456-2.784-16.456c-4.032,0-5.17,0.244-7.598,0.953c-5.268,1.54-6.879,5.22-6.879,5.22v20.607
			c0,0-0.525,17.352,18.075,17.659c3.597,0.059,9.688,0.014,15.528,0.004c5.838,0.009,11.932,0.055,15.527-0.004
			C979.294,969.542,978.768,952.191,978.768,952.191z"/>
		<path fill="#888888" stroke="#231815" stroke-miterlimit="10" d="M990.141,1250.752"/>
		<path fill="none" d="M669.768,1250.752"/>
		<path fill="#AD7279" stroke="#231815" stroke-width="2" stroke-miterlimit="10" d="M704.373,621.577h-0.864h-71.585l0,0
			c-23.6,0.204-95.194,0-95.194,0l-1.719,0.204l-74.304-0.204l3.028,629.176h167.644h1.09h167.649V651.654
			C780.002,645.014,704.373,621.577,704.373,621.577z"/>
	</g>
	<g id="gebo">
		<g display="none">
			<path display="inline" fill="#FFCC9A" stroke="#231815" stroke-miterlimit="10" d="M891.4,1044.165
				c-2.629,6.615-11.819,14.5-15.928,17.211c-2.957,1.949-5.783,3.115-9.359,1.223c-2.323-1.229-1.674-3.695-0.098-6.232
				c2.024-3.264,9.022-7.234,8.98-9.234c-0.021-1.076-0.068-3.012-1.342-2.02c-1.273,0.994-2.111,2.965-4.26,3.598
				c-2.148,0.637-5.041,1.064-2.912-1.648c2.129-2.715,4.619-5.428,7.602-6.666s11.371-4.478,12.76-4.188
				C888.234,1036.496,891.4,1044.165,891.4,1044.165z"/>
			<path display="inline" fill="#FFCC9A" stroke="#231815" stroke-miterlimit="10" d="M922.807,994.771
				c0,0-26.416,27.025-34.451,38.262c-8.035,11.236,0.885,15.17,8.188,8.83c7.307-6.339,41.393-38.381,41.393-38.381
				L922.807,994.771z"/>
		</g>
		<g>
			<path fill="#FFCC9A" stroke="#231815" stroke-width="2" stroke-miterlimit="10" d="M595.663,1191.4
				c-24.04,54.323-18.078,155.778-10.624,196.398c5.396,29.252,14.663,53.134,46.267,63.853
				c20.52,7.014,31.385-11.231,37.372-35.497c7.701-31.185-8.827-96.656,3.222-108.019c6.485-6.082,18.167-17.046,19.582-3.567
				c1.409,13.5-5.443,29.996,3.08,46.701c8.555,16.737,22.547,36.77,26.399,8.104c3.851-28.645,5.663-59.489-4.06-84.749
				c-9.741-25.261-38.527-94.923-48.177-101.712C659.065,1166.17,595.663,1191.4,595.663,1191.4z"/>
			<path fill="#FFCC9A" stroke="#231815" stroke-width="2" stroke-miterlimit="10" d="M698.271,683.999
				c0,0,2.373,351.805-15.145,466.608c-17.508,114.792-97.307,86.98-104.834,6.145c-7.544-80.825-27.749-472.936-27.749-472.936
				L698.271,683.999z"/>
		</g>
	</g>
</g>
<g id="jingluo">
	<g id="图层_15">
	</g>
	
		<line fill="none" stroke="#FFF000" stroke-width="2" stroke-miterlimit="10" x1="776.843" y1="813.368" x2="702.341" y2="825.563"/>
	
		<line fill="none" stroke="#FFF000" stroke-width="2" stroke-miterlimit="10" x1="616.052" y1="1134.813" x2="465.103" y2="1090.82"/>
	<polyline fill="none" stroke="#FFF000" stroke-width="2" stroke-miterlimit="10" points="746.334,1271.193 503.401,1290.926 
		537.374,1402.686 558.386,1518.458 563.75,1575.678 551.261,1693.006 573.86,1694.462 559.286,1730.913 559.286,1757.875 
		544.305,1783.544 554.797,1846.794 	"/>
	<polyline fill="none" stroke="#FFF000" stroke-width="2" stroke-miterlimit="10" points="756.415,1996.329 611.583,1983.808 
		583.866,1927.489 554.797,1846.794 	"/>
	<path fill="none" stroke="#FFF000" stroke-width="2" stroke-miterlimit="10" d="M554.797,1846.794"/>
	<polyline fill="none" stroke="#FFF000" stroke-width="2" stroke-miterlimit="10" points="705.154,133.659 593.064,134.604 
		517.263,157.727 	"/>
	<path fill="none" stroke="#FFF000" stroke-width="2" stroke-miterlimit="10" d="M736.973,174.396
		c-92.549,8.175-356.624,93.107-217.373,249.135l1.487-0.16l-7.009-42.935l16.554-71.726l29.305-35.855l40.756-9.906l68.784,38.689
		l30.562-15.101l10.828-30.195l-2.551-30.203l41.399,33.975l-8.273,77.381l-49.054,58.507l103.817-68.418"/>
	<polyline fill="none" stroke="#FFF000" stroke-width="2" stroke-miterlimit="10" points="697.917,334.819 686.015,359.985 
		604.506,313.433 547.615,343.004 537.432,397.736 576.5,438.631 545.928,486.441 	"/>
</g>
</svg>
