<?xml version="1.0" encoding="utf-8"?>
<!-- Generator: Adobe Illustrator 16.0.0, SVG Export Plug-In . SVG Version: 6.00 Build 0)  -->
<!DOCTYPE svg PUBLIC "-//W3C//DTD SVG 1.1//EN" "http://www.w3.org/Graphics/SVG/1.1/DTD/svg11.dtd">
<svg version="1.1" xmlns="http://www.w3.org/2000/svg" xmlns:xlink="http://www.w3.org/1999/xlink" x="0px" y="0px"
	 width="1417.323px" height="2125.984px" viewBox="0 0 1417.323 2125.984" enable-background="new 0 0 1417.323 2125.984"
	 xml:space="preserve">
<g id="图层_13">
</g>
<g id="shenti">
	<g id="bozi">
		<polygon fill="#FFCB98" stroke="#231815" stroke-width="2" stroke-miterlimit="10" points="692.303,684.141 868.129,652.405 
			840.784,500.949 664.965,532.684 		"/>
	</g>
	<g id="tou">
		<path fill="#FFCC9A" stroke="#231815" stroke-width="2" stroke-miterlimit="10" d="M597.868,448.831
			c0,46.487,45.025,84.168,74.717,84.168h191.741c29.692,0,88.825-37.681,88.825-84.168V219.709
			c0-46.484-24.056-84.165-53.742-84.165H651.615c-29.674,0-53.748,37.681-53.748,84.165V448.831z"/>
	</g>
	<g id="yanjing_2">
		
			<line fill="none" stroke="#231815" stroke-width="5" stroke-miterlimit="10" x1="597.868" y1="260.023" x2="597.868" y2="318.642"/>
	</g>
	<g id="toufa_huzi">
		<path fill="#D1CCD5" stroke="#D0CBD4" stroke-miterlimit="10" d="M602.187,407.48c-14.628,1.079-23.586,1.949-27.848,32.545
			c-4.256,30.596,6.748,49.766,7.08,58.994c0.314,9.228,40.96-67.755,40.96-67.755L602.187,407.48z"/>
		<path fill="#D1CCD5" d="M757.622,407.31c40.41,0.06,82.555,0.361,107.442-0.032c128.69-2.038,125.065-117.11,125.065-117.11
			V153.507c0,0-11.158-24.409-47.603-34.621c-16.8-4.697-24.663-6.318-52.574-6.318c0,0,19.775,62.103-19.257,109.132
			c-14.841,17.89-74.67,30.983-113.074,30.635V407.31z"/>
	</g>
	<g id="xie_1_">
		<path fill="#3E3A39" stroke="#231815" stroke-width="2" stroke-miterlimit="10" d="M761.347,1906.949
			c75.514,0,136.611,43.302,136.611,96.803l-290.761,0.33C607.197,1950.57,644.147,1906.628,761.347,1906.949z"/>
	</g>
	<g id="wazi">
		<path fill="#FFFFFF" d="M679.791,1930.27c0,17.193,32.624,31.122,72.866,31.122s72.868-13.929,72.868-31.122
			c0-17.188-32.626-31.116-72.868-31.116S679.791,1913.083,679.791,1930.27z"/>
	</g>
	<g id="kuzi">
		<path fill="#888888" stroke="#231815" stroke-width="2" stroke-miterlimit="10" d="M623.83,1250.752h317.499
			c0,0-56.121,499.475-74.403,595.12c-18.267,95.645-41.553,99.595-64.393,99.595c-60.139,0-82.638-6.679-96.525-80.962
			c-11.203-59.86-31.769-208.348-48.677-334.219C646.073,1446.506,633.107,1321.635,623.83,1250.752"/>
	</g>
	<g id="yifu">
		<path display="none" fill="#D1CCD5" d="M978.768,952.191v-20.607c0,0-1.61-3.681-6.879-5.22c-2.428-0.708-3.564-0.953-7.597-0.953
			c0,0,2.854,9.364-2.785,16.456c-2.145,2.698-10.792,4.672-16.341,4.62c-5.551,0.053-14.197-1.922-16.343-4.62
			c-5.64-7.091-2.784-16.456-2.784-16.456c-4.032,0-5.17,0.244-7.598,0.953c-5.268,1.54-6.879,5.22-6.879,5.22v20.607
			c0,0-0.525,17.352,18.075,17.659c3.597,0.059,9.688,0.014,15.528,0.004c5.838,0.009,11.932,0.055,15.527-0.004
			C979.294,969.542,978.768,952.191,978.768,952.191z"/>
		<path fill="#888888" stroke="#231815" stroke-miterlimit="10" d="M413.707,1250.752"/>
		<path fill="none" d="M734.08,1250.752"/>
		<path fill="#AD7279" stroke="#231815" stroke-width="2" stroke-miterlimit="10" d="M699.475,621.577h0.864h71.585l0,0
			c23.6,0.204,95.194,0,95.194,0l1.719,0.204l74.304-0.204l-3.028,629.176H772.469h-1.09H603.729V651.654
			C623.846,645.014,699.475,621.577,699.475,621.577z"/>
	</g>
	<g id="gebo">
		<g display="none">
			<path display="inline" fill="#FFCC9A" stroke="#231815" stroke-miterlimit="10" d="M891.4,1044.165
				c-2.629,6.615-11.819,14.5-15.928,17.211c-2.957,1.949-5.783,3.115-9.359,1.223c-2.323-1.229-1.674-3.695-0.098-6.232
				c2.024-3.264,9.022-7.234,8.98-9.234c-0.021-1.076-0.068-3.012-1.342-2.02c-1.273,0.994-2.111,2.965-4.26,3.598
				c-2.148,0.637-5.041,1.064-2.912-1.648c2.129-2.715,4.619-5.428,7.602-6.666s11.371-4.478,12.76-4.188
				C888.234,1036.496,891.4,1044.165,891.4,1044.165z"/>
			<path display="inline" fill="#FFCC9A" stroke="#231815" stroke-miterlimit="10" d="M922.807,994.771
				c0,0-26.416,27.025-34.451,38.262c-8.035,11.236,0.885,15.17,8.188,8.83c7.307-6.339,41.393-38.381,41.393-38.381
				L922.807,994.771z"/>
		</g>
		<g>
			<path fill="#FFCC9A" stroke="#231815" stroke-width="2" stroke-miterlimit="10" d="M808.185,1191.4
				c24.04,54.323,18.078,155.778,10.624,196.398c-5.396,29.252-14.663,53.134-46.267,63.853
				c-20.52,7.014-31.385-11.231-37.372-35.497c-7.701-31.185,8.827-96.656-3.222-108.019c-6.485-6.082-18.167-17.046-19.582-3.567
				c-1.409,13.5,5.443,29.996-3.08,46.701c-8.555,16.737-22.547,36.77-26.399,8.104c-3.851-28.645-5.663-59.489,4.06-84.749
				c9.741-25.261,38.527-94.923,48.177-101.712C744.782,1166.17,808.185,1191.4,808.185,1191.4z"/>
			<path fill="#FFCC9A" stroke="#231815" stroke-width="2" stroke-miterlimit="10" d="M705.577,683.999
				c0,0-2.373,351.805,15.145,466.608c17.508,114.792,97.307,86.98,104.834,6.145c7.544-80.825,27.749-472.936,27.749-472.936
				L705.577,683.999z"/>
		</g>
	</g>
</g>
<g id="jingluo">
	<g id="图层_15">
	</g>
	
		<line fill="none" stroke="#FFF000" stroke-width="2" stroke-miterlimit="10" x1="627.004" y1="813.368" x2="701.507" y2="825.563"/>
	
		<line fill="none" stroke="#FFF000" stroke-width="2" stroke-miterlimit="10" x1="787.796" y1="1134.813" x2="938.745" y2="1090.82"/>
	<polyline fill="none" stroke="#FFF000" stroke-width="2" stroke-miterlimit="10" points="657.514,1271.193 900.446,1290.926 
		866.474,1402.686 845.462,1518.458 840.098,1575.678 852.587,1693.006 829.987,1694.462 844.562,1730.913 844.562,1757.875 
		859.543,1783.544 849.051,1846.794 	"/>
	<polyline fill="none" stroke="#FFF000" stroke-width="2" stroke-miterlimit="10" points="647.432,1996.329 792.265,1983.808 
		819.981,1927.489 849.051,1846.794 	"/>
	<path fill="none" stroke="#FFF000" stroke-width="2" stroke-miterlimit="10" d="M849.051,1846.794"/>
	<polyline fill="none" stroke="#FFF000" stroke-width="2" stroke-miterlimit="10" points="698.694,133.659 810.783,134.604 
		886.585,157.727 	"/>
	<path fill="none" stroke="#FFF000" stroke-width="2" stroke-miterlimit="10" d="M666.875,174.396
		c92.549,8.175,356.624,93.107,217.373,249.135l-1.487-0.16l7.009-42.935l-16.554-71.726l-29.305-35.855l-40.756-9.906
		l-68.784,38.689l-30.562-15.101l-10.828-30.195l2.551-30.203l-41.4,33.975l8.274,77.381l49.054,58.507l-103.817-68.418"/>
	<polyline fill="none" stroke="#FFF000" stroke-width="2" stroke-miterlimit="10" points="705.931,334.819 717.833,359.985 
		799.342,313.433 856.232,343.004 866.416,397.736 827.348,438.631 857.92,486.441 	"/>
</g>
</svg>
