<?xml version="1.0" encoding="utf-8"?>
<!-- Generator: Adobe Illustrator 16.0.0, SVG Export Plug-In . SVG Version: 6.00 Build 0)  -->
<!DOCTYPE svg PUBLIC "-//W3C//DTD SVG 1.1//EN" "http://www.w3.org/Graphics/SVG/1.1/DTD/svg11.dtd">
<svg version="1.1" id="svg" xmlns="http://www.w3.org/2000/svg" xmlns:xlink="http://www.w3.org/1999/xlink" x="0px" y="0px"
	 width="1417.324px" height="1417.324px" viewBox="0 0 1417.324 1417.324" enable-background="new 0 0 1417.324 1417.324"
	 xml:space="preserve">
<g id="all">
	<g id="shenti">
		<g id="bozi">
			<rect x="644.631" y="293.974" fill="#FFCB98" stroke="#231815" stroke-miterlimit="10" width="130.179" height="104.044"/>
			<path fill="#FFCB98" stroke="#231815" stroke-width="0.25" stroke-miterlimit="10" d="M797.517,359.855
				c-68.522-8.454-124.8-6.124-175.594,0.157l87.472,56.619L797.517,359.855z"/>
		</g>
		<g id="tou">
			<path fill="#FFCC9A" stroke="#231815" stroke-miterlimit="10" d="M845.744,261.211c-2.695,23.868-38.174,42.534-60.166,42.534
				h-142.1c-21.994,0-67.936-18.666-70.632-42.534l-15.051-133.248c-3.469-30.706,14.988-56.645,41.369-56.645H819.42
				c26.385,0,44.836,25.939,41.371,56.645L845.744,261.211z"/>
		</g>
		<g id="toufa_huzi">
			<path fill="#D1CCD5" stroke="#D0CBD4" stroke-miterlimit="10" d="M624.614,62.029c17.993-2.149-9.326,40.076-9.104,71.528
				c0.02,1.505,0.029,3.063,0.037,4.668c0.063,10.527-53.423,18.054-52.996,77.526L549.329,104.9c0,0,5.163-20.695,28.793-31.913
				C589.012,67.822,605.774,64.275,624.614,62.029z"/>
			<path fill="#D1CCD5" stroke="#D0CBD4" stroke-miterlimit="10" d="M624.614,62.029c17.993-2.149-9.326,40.076-9.104,71.528
				c0.02,1.505,0.029,3.063,0.037,4.668c0.063,10.527-53.423,18.054-52.996,77.526L549.329,104.9c0,0,5.163-20.695,28.793-31.913
				C589.012,67.822,605.774,64.275,624.614,62.029z"/>
			<path fill="#D1CCD5" stroke="#D0CBD4" stroke-miterlimit="10" d="M792.769,62.029c-17.987-2.149,9.326,40.076,9.104,71.528
				c-0.02,1.505-0.027,3.063-0.037,4.668c-0.059,10.527,53.422,18.054,52.998,77.526L868.058,104.9c0,0-5.161-20.695-28.793-31.913
				C828.373,67.822,811.609,64.275,792.769,62.029z"/>
			<g>
				<path fill="#D1CCD5" stroke="#D0CBD4" stroke-miterlimit="10" d="M710.414,246.442c-12.366-9.948-20.088-15.915-44.807,0
					c-24.728,15.912-29.355,35.806-35.539,41.78c-6.182,5.966,79.771-12.352,79.771-12.352L710.414,246.442z"/>
				<path fill="#D1CCD5" stroke="#D0CBD4" stroke-miterlimit="10" d="M708.192,246.442c12.354-9.948,20.081-15.915,44.805,0
					c24.719,15.912,29.352,35.806,35.531,41.78c6.184,5.966-79.774-12.352-79.774-12.352L708.192,246.442z"/>
			</g>
		</g>
		<g id="gebo">
			<path fill="#FFCC9A" stroke="#231815" stroke-miterlimit="10" d="M506.664,379.317c0,0-202.367,10.352-274.922,25.845
				c-72.557,15.493-51.828,65.421,0,67.198c51.826,1.779,302.646,0,302.646,0L506.664,379.317z"/>
			<path fill="#FFCC9A" stroke="#231815" stroke-miterlimit="10" d="M214.46,466.875c-34.455,17.095-112.662,12.306-138.7,7.809
				c-18.727-3.232-34.083-9.193-41.247-30.502c-4.66-13.839,6.891-21.465,22.337-25.875c19.854-5.668,63.205,0.604,70.331-7.744
				c3.835-4.482,6.75-8.75,0.723-9.313c-8.622-0.809-19.111,4.121-29.868-1.437c-10.757-5.558-23.698-14.774-5.433-17.802
				c18.273-3.024,37.95-4.684,54.187,1.565c16.237,6.25,67.137,22.789,67.622,30.592C214.765,419.833,214.46,466.875,214.46,466.875
				z"/>
			<g>
				<path fill="#FFCC9A" stroke="#231815" stroke-miterlimit="10" d="M910.722,379.321c0,0,202.367,10.352,274.923,25.845
					c72.561,15.493,51.827,65.421,0,67.198c-51.822,1.783-302.646,0-302.646,0L910.722,379.321z"/>
				<path fill="#FFCC9A" stroke="#231815" stroke-miterlimit="10" d="M1200.925,466.878c34.455,17.095,112.662,12.306,138.701,7.809
					c18.729-3.232,34.082-9.193,41.246-30.502c4.66-13.839-6.893-21.465-22.338-25.875c-19.854-5.668-61.846,4.638-68.971-3.71
					c-3.837-4.482-10.712-12.579-2.084-13.349c8.625-0.767,19.108,4.121,29.864-1.435c10.761-5.56,23.699-14.776,5.438-17.804
					c-18.273-3.024-37.951-4.684-54.189,1.565c-16.233,6.25-67.137,22.789-67.62,30.592
					C1200.621,419.837,1200.925,466.878,1200.925,466.878z"/>
			</g>
		</g>
		<g id="kuzi">
			<path fill="#888888" stroke="#231815" stroke-miterlimit="10" d="M707.976,870.537c20.952-0.563,19.067,18.725,23.813,75.91
				c9.875,119.084,22.002,253.239,27.971,307.067c5.027,45.354,35.771,36.271,73.959,36.156
				c19.576-0.051,38.428,0.969,50.029-71.604c11.604-72.588,25.572-454.512,25.572-454.512H707.976H506.348
				c0,0,14.25,381.924,25.859,454.512c11.6,72.57,30.452,71.553,50.029,71.604c38.186,0.111,68.932,9.197,73.958-36.156
				c5.966-53.828,18.096-187.983,27.971-307.067C688.906,889.261,687.024,869.978,707.976,870.537z"/>
		</g>
		<g id="yifu">
			<path fill="#AD7279" d="M794.958,354.739l-86.706,55.805l-0.03,355.268l202.833,0.041l-0.151-392.102
				c-24.158-4.335-114.992-19.63-114.992-19.63"/>
			<path fill="#AD7279" d="M621.396,354.739l86.701,55.805l0.03,355.268l-202.833,0.041l0.154-392.102
				c24.158-4.335,114.992-19.63,114.992-19.63"/>
			<line fill="none" x1="621.462" y1="354.739" x2="621.396" y2="354.739"/>
			<path fill="#AD7279" d="M795.384,354.03c0,0,90.619,15.416,114.777,19.751l0.153,392.101L708.22,765.81l-0.12-355.267
				l86.117-55.773"/>
			<path fill="none" d="M707.265,764.396"/>
		</g>
		<g id="kouzi" display="none">
			<g display="inline">
				<ellipse fill="#231815" cx="709.077" cy="631.475" rx="2.077" ry="2.06"/>
				<ellipse fill="#231815" cx="709.077" cy="663.767" rx="2.077" ry="2.061"/>
				<ellipse fill="#231815" cx="709.292" cy="679.017" rx="2.076" ry="2.059"/>
				<line fill="none" stroke="#231815" stroke-miterlimit="10" x1="704.898" y1="631.475" x2="713.275" y2="631.475"/>
				<line fill="none" stroke="#231815" stroke-miterlimit="10" x1="704.551" y1="663.767" x2="712.927" y2="663.767"/>
				<line fill="none" stroke="#231815" stroke-miterlimit="10" x1="704.735" y1="679.017" x2="713.111" y2="679.017"/>
				<ellipse fill="#231815" cx="709.232" cy="647.922" rx="2.073" ry="2.06"/>
				<line fill="none" stroke="#231815" stroke-miterlimit="10" x1="704.89" y1="647.922" x2="713.265" y2="647.922"/>
				<line fill="none" stroke="#231815" stroke-miterlimit="10" x1="709.212" y1="619.85" x2="709.212" y2="685.863"/>
			</g>
		</g>
		<g id="xie_1_">
			<path fill="#3E3A39" stroke="#231815" stroke-miterlimit="10" d="M599.593,1279.841c-42.313,0-76.555,33.396-76.555,74.678
				h153.123C676.161,1313.238,641.917,1279.841,599.593,1279.841z"/>
			<path fill="#3E3A39" stroke="#231815" stroke-miterlimit="10" d="M821.671,1279.841c42.316,0.273,76.361,33.889,76.115,75.168
				l-153.115-0.994C744.906,1312.734,779.349,1279.56,821.671,1279.841z"/>
			<path fill="#FFFFFF" d="M637.656,1295.519c0,12.099-17.043,21.906-38.063,21.906c-21.017,0-38.06-9.813-38.06-21.906
				c0-12.093,17.043-21.903,38.06-21.903C620.613,1273.611,637.656,1283.423,637.656,1295.519z"/>
			<path fill="#FFFFFF" d="M859.291,1295.519c0,12.099-17.037,21.906-38.061,21.906c-21.021,0-38.063-9.813-38.063-21.906
				c0-12.093,17.043-21.903,38.063-21.903C842.253,1273.611,859.291,1283.423,859.291,1295.519z"/>
		</g>
		<g id="yanjing">
			<g>
				<path fill="none" stroke="#231815" stroke-width="3" stroke-miterlimit="10" d="M667.099,177.359
					c0-7.037-5.693-12.734-12.73-12.734s-12.734,5.697-12.734,12.734"/>
			</g>
			<g>
				<path fill="none" stroke="#231815" stroke-width="3" stroke-miterlimit="10" d="M750.724,177.359
					c0-7.037,5.697-12.734,12.734-12.734s12.734,5.697,12.734,12.734"/>
			</g>
			<g display="none">
				<circle display="inline" fill="#231815" cx="861.535" cy="531.478" r="3.397"/>
				<circle display="inline" fill="#FFFFFF" cx="862.931" cy="530.729" r="1.417"/>
				<circle display="inline" fill="#888888" cx="860.099" cy="532.853" r="0.354"/>
			</g>
			<g display="none">
				<circle display="inline" fill="#231815" cx="884.484" cy="531.635" r="3.396"/>
				<circle display="inline" fill="#FFFFFF" cx="885.882" cy="530.885" r="1.417"/>
				<circle display="inline" fill="#888888" cx="883.05" cy="533.01" r="0.354"/>
			</g>
		</g>
	</g>
	<g id="jingluo">
		<g id="Kidney-2">
			<polyline fill="none" stroke="#009FE8" stroke-width="2" stroke-miterlimit="10" points="693.871,793.873 693.871,582.316 
				668.6,544.487 668.6,386.648 			"/>
		</g>
		<g id="Kidney-1">
			<polyline fill="none" stroke="#009FE8" stroke-width="2" stroke-miterlimit="10" points="722.513,793.873 722.513,582.316 
				747.785,544.487 747.785,386.647 			"/>
		</g>
		<g id="Stomach-2">
			<polyline fill="none" stroke="#F7B52C" stroke-width="2" stroke-miterlimit="10" points="584.527,93.977 577.82,202.632 
				584.32,265.088 623.82,289.417 659.294,271.955 659.294,187.289 			"/>
			<polyline fill="none" stroke="#F29600" stroke-width="2" stroke-miterlimit="10" points="787.037,381.247 787.037,536.021 
				787.037,535.141 761.765,580.995 761.765,791.646 761.792,791.646 822.216,885.854 841.248,992.062 841.248,1127.375 
				860.277,1115.062 822.216,1214.121 823.039,1273.119 827.292,1354.517 			"/>
			<polyline fill="none" stroke="#F29600" stroke-width="2" stroke-miterlimit="10" points="629.326,381.247 629.326,536.021 
				629.326,535.141 654.598,580.995 654.598,791.646 654.57,791.646 594.146,885.854 575.116,992.062 575.116,1127.375 
				556.086,1115.062 594.146,1214.121 593.324,1273.119 589.07,1354.517 			"/>
		</g>
		<g id="Stomach-1">
			<polyline fill="none" stroke="#F29600" stroke-width="2" stroke-miterlimit="10" points="787.037,381.247 787.037,536.021 
				787.037,535.141 761.765,580.995 761.765,791.646 761.792,791.646 822.216,885.854 841.248,992.062 841.248,1127.375 
				860.277,1115.062 822.216,1214.121 823.039,1273.119 827.292,1354.517 			"/>
			<polyline fill="none" stroke="#F7B52C" stroke-width="2" stroke-miterlimit="10" points="831.857,91.906 838.564,200.562 
				832.064,263.017 792.564,287.346 757.091,269.884 757.091,185.218 			"/>
		</g>
		<g id="Conception">
			
				<line fill="none" stroke="#000000" stroke-width="2" stroke-miterlimit="10" x1="708.192" y1="793.646" x2="708.192" y2="275.871"/>
		</g>
		<g id="SmallIntestine-2">
			<polyline fill="none" stroke="#E3007F" stroke-width="2" stroke-miterlimit="10" points="565.239,197.257 617.233,210.562 
				576.566,273.348 			"/>
		</g>
		<g id="SmallIntestine-1">
			<polyline fill="none" stroke="#E3007F" stroke-width="2" stroke-miterlimit="10" points="853.009,197.257 801.015,210.562 
				841.681,273.348 			"/>
		</g>
		<g id="Bladder-2">
			
				<line fill="none" stroke="#E3007F" stroke-width="2" stroke-miterlimit="10" x1="675.119" y1="177.359" x2="675.119" y2="71.671"/>
		</g>
		<g id="Bladder-1">
			
				<line fill="none" stroke="#E3007F" stroke-width="2" stroke-miterlimit="10" x1="741.265" y1="177.359" x2="741.265" y2="71.671"/>
		</g>
		<g id="Governor">
			
				<line fill="none" stroke="#804F21" stroke-width="2" stroke-miterlimit="10" x1="708.192" y1="246.442" x2="708.192" y2="71.671"/>
		</g>
		<g id="Gallbladder-2">
			<polyline fill="none" stroke="#FFF000" stroke-width="2" stroke-miterlimit="10" points="506.35,545.153 594.852,586.65 
				504.417,651.528 			"/>
			<polyline fill="none" stroke="#FFF000" stroke-width="2" stroke-miterlimit="10" points="510.125,855.173 547.932,770.617 
				533.869,693.164 505.919,660.478 			"/>
			<polyline fill="none" stroke="#FFF000" stroke-width="2" stroke-miterlimit="10" points="596.96,71.671 631.098,111.728 
				652.927,151.062 652.927,71.671 			"/>
			
				<line fill="none" stroke="#FFF000" stroke-width="2" stroke-miterlimit="10" x1="570.953" y1="163.27" x2="587.944" y2="153.073"/>
			<polyline fill="none" stroke="#FFF000" stroke-width="2" stroke-miterlimit="10" points="566.867,177.037 563.611,148.407 
				563.611,148.073 574.944,104.74 568.617,197.383 598.528,177.037 			"/>
		</g>
		<g id="Gallbladder-1">
			<polyline fill="none" stroke="#FFF000" stroke-width="2" stroke-miterlimit="10" points="911.599,651.062 823.011,586.65 
				911.513,545.153 			"/>
			<polyline fill="none" stroke="#FFF000" stroke-width="2" stroke-miterlimit="10" points="907.738,855.173 869.931,770.617 
				883.996,693.164 911.945,660.478 			"/>
			
				<line fill="none" stroke="#FFF000" stroke-width="2" stroke-miterlimit="10" x1="845.462" y1="163.655" x2="828.439" y2="153.395"/>
			<polyline fill="none" stroke="#FFF000" stroke-width="2" stroke-miterlimit="10" points="849.517,177.359 852.771,148.729 
				852.771,148.395 841.604,105.062 845.479,163.312 847.767,197.705 817.855,177.359 			"/>
			<polyline fill="none" stroke="#FFF000" stroke-width="2" stroke-miterlimit="10" points="819.425,71.671 785.287,111.728 
				763.458,151.062 763.458,71.671 			"/>
		</g>
		<g id="Liver-2">
			<polyline fill="none" stroke="#5F1985" stroke-width="2" stroke-miterlimit="10" points="614.634,1355.111 614.634,1261.765 
				634.286,1133.453 668.579,1113.875 			"/>
			<polyline fill="none" stroke="#5F1985" stroke-width="2" stroke-miterlimit="10" points="614.432,544.712 546.432,641.896 
				648.865,842.513 664.432,1025.062 674.102,1047.207 			"/>
		</g>
		<g id="Liver-1">
			<polyline fill="none" stroke="#5F1985" stroke-width="2" stroke-miterlimit="10" points="801.931,1355.009 801.931,1261.664 
				782.281,1133.351 747.988,1113.772 			"/>
			<polyline fill="none" stroke="#5F1985" stroke-width="2" stroke-miterlimit="10" points="801.931,544.712 869.931,641.896 
				767.498,842.513 751.931,1025.062 742.261,1047.207 			"/>
		</g>
		<g id="LargeIntestine-2">
			<polyline fill="none" stroke="#F7B52C" stroke-width="2" stroke-miterlimit="10" points="670.119,200.562 695.786,221.062 
				680.688,228.898 			"/>
		</g>
		<g id="LargeIntestine-1">
			<polyline fill="none" stroke="#F7B52C" stroke-width="2" stroke-miterlimit="10" points="746.265,200.562 720.599,221.062 
				735.697,228.898 			"/>
		</g>
		<g id="Spleen-2">
			<polyline fill="none" stroke="#8DC21F" stroke-width="3" stroke-miterlimit="10" points="583.953,448.907 583.953,536.612 
				625.453,650.815 625.453,826.121 650.188,1033.91 632.255,1261.664 662.454,1355.923 			"/>
		</g>
		<g id="Spleen-1">
			<polyline fill="none" stroke="#8DC21F" stroke-width="3" stroke-miterlimit="10" points="832.431,448.907 832.431,536.612 
				790.931,650.815 790.931,826.121 766.197,1033.91 784.13,1261.664 753.931,1355.923 			"/>
		</g>
		<g id="Heart-2">
			
				<line fill="none" stroke="#009FE8" stroke-width="2" stroke-miterlimit="10" x1="506.871" y1="458.792" x2="47.413" y2="462.331"/>
		</g>
		<g id="Heart-1">
			
				<line fill="none" stroke="#009FE8" stroke-width="2" stroke-miterlimit="10" x1="911.513" y1="458.462" x2="1369.931" y2="462.062"/>
		</g>
		<g id="Lung-2">
			<polyline fill="none" stroke="#8DC21F" stroke-width="2" stroke-miterlimit="10" points="583.953,423.062 583.953,405.298 
				364.453,420.131 233.582,422.062 221.582,411.992 212.239,422.062 195.582,422.062 127.786,388.068 84.573,390.158 			"/>
		</g>
		<g id="Lung-1">
			<polyline fill="none" stroke="#8DC21F" stroke-width="2" stroke-miterlimit="10" points="1330.765,390.062 1288.599,388.068 
				1220.802,422.062 1204.146,422.062 1194.802,411.992 1182.802,422.062 1051.931,420.131 832.431,405.298 832.431,423.062 			"/>
		</g>
		<g id="Pericardium-1">
			
				<line fill="none" stroke="#5F1985" stroke-width="2" stroke-miterlimit="10" x1="812.265" y1="497.896" x2="812.265" y2="436.507"/>
			<polyline fill="none" stroke="#5F1985" stroke-width="2" stroke-miterlimit="10" points="1381.599,438.229 1051.931,448.907 
				812.265,436.507 			"/>
		</g>
		<g id="Pericardium-2">
			<polyline fill="none" stroke="#5F1985" stroke-width="2" stroke-miterlimit="10" points="604.12,497.896 604.12,436.507 
				364.453,448.907 33.474,438.312 			"/>
		</g>
	</g>
	<g id="xuewei">
		<g id="KI27-2">
			<circle fill="#231815" cx="668.62" cy="386.625" r="1.75"/>
		</g>
		<g id="KI26-2">
			<circle fill="#231815" cx="668.62" cy="418.688" r="1.75"/>
		</g>
		<g id="KI25-2">
			<circle fill="#231815" cx="668.62" cy="450.964" r="1.75"/>
		</g>
		<g id="KI24-2">
			<circle fill="#231815" cx="668.62" cy="481.619" r="1.75"/>
		</g>
		<g id="KI23-2">
			<circle fill="#231815" cx="668.62" cy="512.119" r="1.75"/>
		</g>
		<g id="KI22-2">
			<circle fill="#231815" cx="668.62" cy="544.712" r="1.75"/>
		</g>
		<g id="KI21-2">
			<circle fill="#231815" cx="693.892" cy="582.293" r="1.75"/>
		</g>
		<g id="KI20-2">
			<circle fill="#231815" cx="693.892" cy="596.619" r="1.75"/>
		</g>
		<g id="KI19-2">
			<circle fill="#231815" cx="693.892" cy="616.917" r="1.75"/>
		</g>
		<g id="KI18-2">
			<circle fill="#231815" cx="693.892" cy="634.786" r="1.75"/>
		</g>
		<g id="KI17-2">
			<circle fill="#231815" cx="693.892" cy="659.036" r="1.75"/>
		</g>
		<g id="KI16-2">
			<circle fill="#231815" cx="693.892" cy="693.917" r="1.75"/>
		</g>
		<g id="KI15-2">
			<circle fill="#231815" cx="693.892" cy="714.621" r="1.75"/>
		</g>
		<g id="KI14-2">
			<circle fill="#231815" cx="693.892" cy="734.167" r="1.75"/>
		</g>
		<g id="KI13-2">
			<circle fill="#231815" cx="693.892" cy="758.322" r="1.75"/>
		</g>
		<g id="KI12-2">
			<circle fill="#231815" cx="693.892" cy="774.869" r="1.75"/>
		</g>
		<g id="KI11-2">
			<circle fill="#231815" cx="693.892" cy="793.851" r="1.75"/>
		</g>
		<g id="KI27-1">
			<circle fill="#231815" cx="747.785" cy="386.318" r="1.75"/>
		</g>
		<g id="KI26-1">
			<circle fill="#231815" cx="747.785" cy="418.381" r="1.75"/>
		</g>
		<g id="KI25-1">
			<circle fill="#231815" cx="747.785" cy="450.657" r="1.75"/>
		</g>
		<g id="KI24-1">
			<circle fill="#231815" cx="747.785" cy="481.312" r="1.75"/>
		</g>
		<g id="KI23-1">
			<circle fill="#231815" cx="747.785" cy="511.812" r="1.75"/>
		</g>
		<g id="KI22-1">
			<circle fill="#231815" cx="747.785" cy="544.405" r="1.75"/>
		</g>
		<g id="KI21-1">
			<circle fill="#231815" cx="722.513" cy="581.987" r="1.75"/>
		</g>
		<g id="KI20-1">
			<circle fill="#231815" cx="722.513" cy="596.312" r="1.75"/>
		</g>
		<g id="KI19-1">
			<circle fill="#231815" cx="722.513" cy="616.609" r="1.75"/>
		</g>
		<g id="KI18-1">
			<circle fill="#231815" cx="722.513" cy="634.478" r="1.75"/>
		</g>
		<g id="KI17-1">
			<circle fill="#231815" cx="722.513" cy="658.728" r="1.75"/>
		</g>
		<g id="KI16-1">
			<circle fill="#231815" cx="722.513" cy="693.609" r="1.75"/>
		</g>
		<g id="KI15-1">
			<circle fill="#231815" cx="722.513" cy="714.314" r="1.75"/>
		</g>
		<g id="KI14-1">
			<circle fill="#231815" cx="722.513" cy="733.859" r="1.75"/>
		</g>
		<g id="KI13-1">
			<circle fill="#231815" cx="722.513" cy="758.013" r="1.75"/>
		</g>
		<g id="KI12-1">
			<circle fill="#231815" cx="722.513" cy="774.562" r="1.75"/>
		</g>
		<g id="KI11-1">
			<circle fill="#231815" cx="722.513" cy="793.542" r="1.75"/>
		</g>
		<g id="CV24">
			<circle fill="#FFF000" cx="708.192" cy="275.871" r="1.75"/>
		</g>
		<g id="CV23">
			<circle fill="#FFF000" cx="708.192" cy="287.346" r="1.75"/>
		</g>
		<g id="CV22">
			<circle fill="#FFF000" cx="708.192" cy="366.062" r="1.75"/>
		</g>
		<g id="CV21">
			<circle fill="#FFF000" cx="708.192" cy="388.408" r="1.75"/>
		</g>
		<g id="CV20">
			<circle fill="#FFF000" cx="708.192" cy="403.548" r="1.75"/>
		</g>
		<g id="CV19">
			<circle fill="#FFF000" cx="708.192" cy="430.49" r="1.75"/>
		</g>
		<g id="CV18">
			<circle fill="#FFF000" cx="708.192" cy="458.812" r="1.75"/>
		</g>
		<g id="CV17">
			<circle fill="#FFF000" cx="708.192" cy="493.387" r="1.75"/>
		</g>
		<g id="CV16">
			<circle fill="#FFF000" cx="708.191" cy="521.728" r="1.75"/>
		</g>
		<g id="CV15">
			<circle fill="#FFF000" cx="708.191" cy="538.562" r="1.75"/>
		</g>
		<g id="CV14">
			<circle fill="#FFF000" cx="708.191" cy="565.059" r="1.75"/>
		</g>
		<g id="CV13">
			<circle fill="#FFF000" cx="708.191" cy="584.547" r="1.75"/>
		</g>
		<g id="CV12">
			<circle fill="#FFF000" cx="708.191" cy="601.896" r="1.75"/>
		</g>
		<g id="CV11">
			<circle fill="#FFF000" cx="708.191" cy="621.062" r="1.75"/>
		</g>
		<g id="CV10">
			<circle fill="#FFF000" cx="708.191" cy="641.456" r="1.75"/>
		</g>
		<g id="CV9">
			<circle fill="#FFF000" cx="708.192" cy="662.228" r="1.75"/>
		</g>
		<g id="CV8">
			<circle fill="#FFF000" cx="708.191" cy="679.062" r="1.75"/>
		</g>
		<g id="CV7">
			<circle fill="#FFF000" cx="708.193" cy="700.228" r="1.75"/>
		</g>
		<g id="CV6">
			<circle fill="#FFF000" cx="708.193" cy="712.564" r="1.75"/>
		</g>
		<g id="CV5">
			<circle fill="#FFF000" cx="708.192" cy="723.359" r="1.75"/>
		</g>
		<g id="CV4">
			<circle fill="#FFF000" cx="708.192" cy="741.729" r="1.75"/>
		</g>
		<g id="CV3">
			<circle fill="#FFF000" cx="707.974" cy="762.896" r="1.75"/>
		</g>
		<g id="CV2">
			<circle fill="#FFF000" cx="708.191" cy="781.479" r="1.75"/>
		</g>
		<g id="ST30-2">
			<circle fill="#231815" cx="654.619" cy="791.451" r="1.75"/>
		</g>
		<g id="ST29-2">
			<circle fill="#231815" cx="654.619" cy="772.367" r="1.75"/>
		</g>
		<g id="ST28-2">
			<circle fill="#231815" cx="654.619" cy="752.318" r="1.75"/>
		</g>
		<g id="ST27-2">
			<circle fill="#231815" cx="654.619" cy="732.289" r="1.75"/>
		</g>
		<g id="ST26-2">
			<circle fill="#231815" cx="654.619" cy="712.117" r="1.75"/>
		</g>
		<g id="ST25-2">
			<circle fill="#231815" cx="654.619" cy="691.414" r="1.75"/>
		</g>
		<g id="ST24-2">
			<circle fill="#231815" cx="654.619" cy="672.492" r="1.75"/>
		</g>
		<g id="ST23-2">
			<circle fill="#231815" cx="654.619" cy="653.032" r="1.75"/>
		</g>
		<g id="ST22-2">
			<circle fill="#231815" cx="654.619" cy="632.282" r="1.75"/>
		</g>
		<g id="ST21-2">
			<circle fill="#231815" cx="654.619" cy="614.414" r="1.75"/>
		</g>
		<g id="ST20-2">
			<circle fill="#231815" cx="654.619" cy="596.116" r="1.75"/>
		</g>
		<g id="ST19-2">
			<circle fill="#231815" cx="654.619" cy="580.017" r="1.75"/>
		</g>
		<g id="ST18-2">
			<circle fill="#231815" cx="629.348" cy="534.945" r="1.75"/>
		</g>
		<g id="ST17-2">
			<circle fill="#231815" cx="629.348" cy="497.7" r="1.75"/>
		</g>
		<g id="ST16-2">
			<circle fill="#231815" cx="629.348" cy="467.104" r="1.75"/>
		</g>
		<g id="ST15-2">
			<circle fill="#231815" cx="629.348" cy="436.312" r="1.75"/>
		</g>
		<g id="ST14-2">
			<circle fill="#231815" cx="629.348" cy="409.366" r="1.75"/>
		</g>
		<g id="ST13-2">
			<circle fill="#231815" cx="629.348" cy="381.209" r="1.75"/>
		</g>
		<g id="ST30-1">
			<circle fill="#231815" cx="761.765" cy="791.646" r="1.75"/>
		</g>
		<g id="ST29-1">
			<circle fill="#231815" cx="761.765" cy="772.562" r="1.75"/>
		</g>
		<g id="ST28-1">
			<circle fill="#231815" cx="761.765" cy="752.513" r="1.75"/>
		</g>
		<g id="ST27-1">
			<circle fill="#231815" cx="761.765" cy="732.484" r="1.75"/>
		</g>
		<g id="ST26-1">
			<circle fill="#231815" cx="761.765" cy="712.314" r="1.75"/>
		</g>
		<g id="ST25-1">
			<circle fill="#231815" cx="761.765" cy="691.609" r="1.75"/>
		</g>
		<g id="ST24-1">
			<circle fill="#231815" cx="761.765" cy="672.687" r="1.75"/>
		</g>
		<g id="ST23-1">
			<circle fill="#231815" cx="761.765" cy="653.228" r="1.75"/>
		</g>
		<g id="ST22-1">
			<circle fill="#231815" cx="761.765" cy="632.478" r="1.75"/>
		</g>
		<g id="ST21-1">
			<circle fill="#231815" cx="761.765" cy="614.609" r="1.75"/>
		</g>
		<g id="ST20-1">
			<circle fill="#231815" cx="761.765" cy="596.312" r="1.75"/>
		</g>
		<g id="ST19-1">
			<circle fill="#231815" cx="761.765" cy="580.212" r="1.75"/>
		</g>
		<g id="ST18-1">
			<circle fill="#231815" cx="787.037" cy="535.141" r="1.75"/>
		</g>
		<g id="ST17-1">
			<circle fill="#231815" cx="787.037" cy="497.896" r="1.75"/>
		</g>
		<g id="ST16-1">
			<circle fill="#231815" cx="787.037" cy="467.3" r="1.75"/>
		</g>
		<g id="ST15-1">
			<circle fill="#231815" cx="787.037" cy="436.507" r="1.75"/>
		</g>
		<g id="ST14-1">
			<circle fill="#231815" cx="787.037" cy="409.562" r="1.75"/>
		</g>
		<g id="ST13-1">
			<circle fill="#231815" cx="787.037" cy="381.405" r="1.75"/>
		</g>
	</g>
</g>
</svg>
